<svg width="60" height="60" viewBox="0 0 60 60" fill="none" xmlns="http://www.w3.org/2000/svg">
<path d="M28 55C28 55.2672 27.8449 55.6687 27.2286 56.1712C26.6201 56.6673 25.6787 57.1586 24.4271 57.5902C21.9333 58.4501 18.4236 59 14.5 59C10.5764 59 7.06666 58.4501 4.57294 57.5902C3.32127 57.1586 2.37993 56.6673 1.77136 56.1712C1.15505 55.6687 1 55.2672 1 55C1 54.7328 1.15505 54.3313 1.77136 53.8288C2.37993 53.3327 3.32127 52.8414 4.57294 52.4098C7.06666 51.5499 10.5764 51 14.5 51C18.4236 51 21.9333 51.5499 24.4271 52.4098C25.6787 52.8414 26.6201 53.3327 27.2286 53.8288C27.8449 54.3313 28 54.7328 28 55Z" stroke="#152C58" stroke-width="2"/>
<path d="M27 14.2432C27 15.7012 26.6228 18.9493 25.9143 23.0613C25.2102 27.1483 24.1913 32.0182 22.9339 36.6903C21.6735 41.3732 20.1858 45.8099 18.5558 49.0562C17.7391 50.6828 16.912 51.9585 16.0974 52.8137C15.2743 53.6779 14.5751 54 14 54C13.4249 54 12.7257 53.6779 11.9026 52.8137C11.088 51.9585 10.2609 50.6828 9.44424 49.0562C7.81422 45.8099 6.32654 41.3732 5.06614 36.6903C3.80867 32.0182 2.78979 27.1483 2.08567 23.0613C1.37722 18.9493 1 15.7012 1 14.2432C1 8.77962 6.60445 4 14 4C21.3956 4 27 8.77962 27 14.2432Z" fill="white" stroke="#152C58" stroke-width="2"/>
<circle cx="14" cy="17" r="6" stroke="#E96868" stroke-width="2"/>
</svg>
