<svg width="60" height="60" viewBox="0 0 60 60" fill="none" xmlns="http://www.w3.org/2000/svg">
<circle cx="30" cy="40" r="8" stroke="#E96868" stroke-width="2"/>
<mask id="path-2-inside-1_8_65" fill="white">
<path fill-rule="evenodd" clip-rule="evenodd" d="M22.0772 11C20.2631 11 18.6761 12.2208 18.2109 13.9743L17.0612 18.3077C16.8286 19.1845 16.0351 19.7949 15.1281 19.7949H7C3.13401 19.7949 0 22.9289 0 26.7949V53C0 56.866 3.13401 60 7 60H53C56.866 60 60 56.866 60 53V26.7949C60 22.9289 56.866 19.7949 53 19.7949H44.2622C43.3913 19.7949 42.6206 19.2314 42.3564 18.4016L40.8871 13.7865C40.3588 12.127 38.8173 11 37.0756 11H22.0772Z"/>
</mask>
<path d="M18.2109 13.9743L16.2778 13.4614V13.4614L18.2109 13.9743ZM40.8871 13.7865L42.7929 13.1798V13.1798L40.8871 13.7865ZM42.3564 18.4016L44.2622 17.7949L42.3564 18.4016ZM17.0612 18.3077L18.9943 18.8206L17.0612 18.3077ZM20.144 14.4871C20.3766 13.6104 21.1701 13 22.0772 13V9C19.356 9 16.9756 10.8312 16.2778 13.4614L20.144 14.4871ZM18.9943 18.8206L20.144 14.4871L16.2778 13.4614L15.1281 17.7949L18.9943 18.8206ZM7 21.7949H15.1281V17.7949H7V21.7949ZM2 26.7949C2 24.0335 4.23858 21.7949 7 21.7949V17.7949C2.02943 17.7949 -2 21.8243 -2 26.7949H2ZM2 53V26.7949H-2V53H2ZM7 58C4.23858 58 2 55.7614 2 53H-2C-2 57.9706 2.02944 62 7 62V58ZM53 58H7V62H53V58ZM58 53C58 55.7614 55.7614 58 53 58V62C57.9706 62 62 57.9705 62 53H58ZM58 26.7949V53H62V26.7949H58ZM53 21.7949C55.7614 21.7949 58 24.0334 58 26.7949H62C62 21.8243 57.9706 17.7949 53 17.7949V21.7949ZM44.2622 21.7949H53V17.7949H44.2622V21.7949ZM38.9814 14.3933L40.4507 19.0083L44.2622 17.7949L42.7929 13.1798L38.9814 14.3933ZM37.0756 13C37.9465 13 38.7172 13.5635 38.9814 14.3933L42.7929 13.1798C42.0004 10.6904 39.6881 9 37.0756 9V13ZM22.0772 13H37.0756V9H22.0772V13ZM44.2622 17.7949V17.7949L40.4507 19.0083C40.979 20.6679 42.5205 21.7949 44.2622 21.7949V17.7949ZM15.1281 17.7949H15.1281V21.7949C16.9422 21.7949 18.5291 20.574 18.9943 18.8206L15.1281 17.7949Z" fill="#152C58" mask="url(#path-2-inside-1_8_65)"/>
<path d="M40 29C40 28.4477 40.4477 28 41 28H51C51.5523 28 52 28.4477 52 29V29C52 29.5523 51.5523 30 51 30H41C40.4477 30 40 29.5523 40 29V29Z" fill="#152C58"/>
</svg>
